{
    "patcher": {
        "fileversion": 1,
        "appversion": {
            "major": 9,
            "minor": 1,
            "revision": 0,
            "architecture": "x64",
            "modernui": 1
        },
        "classnamespace": "box",
        "rect": [ 59.0, 106.0, 1000.0, 780.0 ],
        "boxes": [
            {
                "box": {
                    "comment": "",
                    "id": "obj-2",
                    "index": 0,
                    "maxclass": "outlet",
                    "numinlets": 1,
                    "numoutlets": 0,
                    "patching_rect": [ 271.0, 371.0, 30.0, 30.0 ]
                }
            },
            {
                "box": {
                    "comment": "",
                    "id": "obj-1",
                    "index": 0,
                    "maxclass": "inlet",
                    "numinlets": 0,
                    "numoutlets": 1,
                    "outlettype": [ "" ],
                    "patching_rect": [ 271.0, 143.0, 30.0, 30.0 ]
                }
            },
            {
                "box": {
                    "id": "obj-116",
                    "maxclass": "newobj",
                    "numinlets": 2,
                    "numoutlets": 2,
                    "outlettype": [ "", "" ],
                    "patching_rect": [ 365.0, 273.0, 62.0, 22.0 ],
                    "text": "route type"
                }
            },
            {
                "box": {
                    "id": "obj-115",
                    "maxclass": "newobj",
                    "numinlets": 1,
                    "numoutlets": 1,
                    "outlettype": [ "" ],
                    "patching_rect": [ 365.0, 243.0, 73.0, 22.0 ],
                    "text": "jit.matrixinfo"
                }
            },
            {
                "box": {
                    "id": "obj-114",
                    "maxclass": "newobj",
                    "numinlets": 1,
                    "numoutlets": 2,
                    "outlettype": [ "", "" ],
                    "patching_rect": [ 271.0, 210.0, 113.0, 22.0 ],
                    "text": "t l l"
                }
            },
            {
                "box": {
                    "id": "obj-113",
                    "maxclass": "newobj",
                    "numinlets": 1,
                    "numoutlets": 2,
                    "outlettype": [ "jit_matrix", "" ],
                    "patching_rect": [ 271.0, 325.0, 145.0, 22.0 ],
                    "text": "jit.matrix 1 #1 1 @adapt 0"
                }
            }
        ],
        "lines": [
            {
                "patchline": {
                    "destination": [ "obj-114", 0 ],
                    "source": [ "obj-1", 0 ]
                }
            },
            {
                "patchline": {
                    "destination": [ "obj-2", 0 ],
                    "source": [ "obj-113", 0 ]
                }
            },
            {
                "patchline": {
                    "destination": [ "obj-113", 0 ],
                    "source": [ "obj-114", 0 ]
                }
            },
            {
                "patchline": {
                    "destination": [ "obj-115", 0 ],
                    "source": [ "obj-114", 1 ]
                }
            },
            {
                "patchline": {
                    "destination": [ "obj-116", 0 ],
                    "source": [ "obj-115", 0 ]
                }
            },
            {
                "patchline": {
                    "destination": [ "obj-113", 0 ],
                    "midpoints": [ 417.5, 309.0, 280.5, 309.0 ],
                    "source": [ "obj-116", 1 ]
                }
            }
        ],
        "autosave": 0
    }
}