{
    "patcher": {
        "fileversion": 1,
        "appversion": {
            "major": 9,
            "minor": 1,
            "revision": 0,
            "architecture": "x64",
            "modernui": 1
        },
        "classnamespace": "box",
        "rect": [ 59.0, 106.0, 1000.0, 780.0 ],
        "boxes": [
            {
                "box": {
                    "id": "obj-5",
                    "linecount": 2,
                    "maxclass": "comment",
                    "numinlets": 1,
                    "numoutlets": 0,
                    "patching_rect": [ 512.0, 373.0, 153.0, 34.0 ],
                    "text": "This can be useful for loop recording into a buffer."
                }
            },
            {
                "box": {
                    "id": "obj-4",
                    "linecount": 8,
                    "maxclass": "comment",
                    "numinlets": 1,
                    "numoutlets": 0,
                    "patching_rect": [ 573.0, 164.0, 153.0, 117.0 ],
                    "text": "After we receiving a bang, the patch will output a signal of value 1 for the duration of the next phasor~ cycle. The output will revert back to 0 unless a new bang is received before the end of the cycle."
                }
            },
            {
                "box": {
                    "id": "obj-3",
                    "maxclass": "comment",
                    "numinlets": 1,
                    "numoutlets": 0,
                    "patching_rect": [ 411.0, 146.0, 150.0, 20.0 ],
                    "text": "bang or clear"
                }
            },
            {
                "box": {
                    "id": "obj-2",
                    "maxclass": "comment",
                    "numinlets": 1,
                    "numoutlets": 0,
                    "patching_rect": [ 92.0, 151.0, 150.0, 20.0 ],
                    "text": "Signal from a phasor~"
                }
            },
            {
                "box": {
                    "id": "obj-59",
                    "maxclass": "message",
                    "numinlets": 2,
                    "numoutlets": 1,
                    "outlettype": [ "" ],
                    "patching_rect": [ 362.0, 273.0, 29.5, 22.0 ],
                    "text": "0"
                }
            },
            {
                "box": {
                    "id": "obj-57",
                    "maxclass": "newobj",
                    "numinlets": 2,
                    "numoutlets": 2,
                    "outlettype": [ "bang", "" ],
                    "patching_rect": [ 362.0, 237.0, 73.0, 22.0 ],
                    "text": "sel clear"
                }
            },
            {
                "box": {
                    "id": "obj-50",
                    "maxclass": "message",
                    "numinlets": 2,
                    "numoutlets": 1,
                    "outlettype": [ "" ],
                    "patching_rect": [ 443.0, 316.0, 29.5, 22.0 ],
                    "text": "1"
                }
            },
            {
                "box": {
                    "id": "obj-49",
                    "maxclass": "message",
                    "numinlets": 2,
                    "numoutlets": 1,
                    "outlettype": [ "" ],
                    "patching_rect": [ 259.5, 504.0, 29.5, 22.0 ],
                    "text": "0"
                }
            },
            {
                "box": {
                    "id": "obj-47",
                    "maxclass": "newobj",
                    "numinlets": 1,
                    "numoutlets": 2,
                    "outlettype": [ "bang", "bang" ],
                    "patching_rect": [ 231.0, 461.0, 42.0, 22.0 ],
                    "text": "edge~"
                }
            },
            {
                "box": {
                    "id": "obj-45",
                    "maxclass": "newobj",
                    "numinlets": 2,
                    "numoutlets": 1,
                    "outlettype": [ "signal" ],
                    "patching_rect": [ 247.0, 237.0, 33.0, 22.0 ],
                    "text": "<~ 0"
                }
            },
            {
                "box": {
                    "id": "obj-44",
                    "maxclass": "newobj",
                    "numinlets": 1,
                    "numoutlets": 1,
                    "outlettype": [ "signal" ],
                    "patching_rect": [ 247.0, 206.0, 42.0, 22.0 ],
                    "text": "delta~"
                }
            },
            {
                "box": {
                    "id": "obj-40",
                    "maxclass": "newobj",
                    "numinlets": 1,
                    "numoutlets": 1,
                    "outlettype": [ "signal" ],
                    "patching_rect": [ 199.0, 354.0, 31.0, 22.0 ],
                    "text": "sig~"
                }
            },
            {
                "box": {
                    "id": "obj-31",
                    "maxclass": "newobj",
                    "numinlets": 2,
                    "numoutlets": 1,
                    "outlettype": [ "signal" ],
                    "patching_rect": [ 231.0, 409.0, 35.0, 22.0 ],
                    "text": "sah~"
                }
            },
            {
                "box": {
                    "comment": "",
                    "id": "obj-64",
                    "index": 0,
                    "maxclass": "inlet",
                    "numinlets": 0,
                    "numoutlets": 1,
                    "outlettype": [ "" ],
                    "patching_rect": [ 362.0, 146.0, 30.0, 30.0 ]
                }
            },
            {
                "box": {
                    "comment": "",
                    "id": "obj-65",
                    "index": 0,
                    "maxclass": "inlet",
                    "numinlets": 0,
                    "numoutlets": 1,
                    "outlettype": [ "" ],
                    "patching_rect": [ 247.0, 146.0, 30.0, 30.0 ]
                }
            },
            {
                "box": {
                    "comment": "",
                    "id": "obj-66",
                    "index": 0,
                    "maxclass": "outlet",
                    "numinlets": 1,
                    "numoutlets": 0,
                    "patching_rect": [ 111.0, 528.0, 30.0, 30.0 ]
                }
            }
        ],
        "lines": [
            {
                "patchline": {
                    "destination": [ "obj-47", 0 ],
                    "order": 0,
                    "source": [ "obj-31", 0 ]
                }
            },
            {
                "patchline": {
                    "destination": [ "obj-66", 0 ],
                    "order": 1,
                    "source": [ "obj-31", 0 ]
                }
            },
            {
                "patchline": {
                    "destination": [ "obj-31", 0 ],
                    "source": [ "obj-40", 0 ]
                }
            },
            {
                "patchline": {
                    "destination": [ "obj-45", 0 ],
                    "source": [ "obj-44", 0 ]
                }
            },
            {
                "patchline": {
                    "destination": [ "obj-31", 1 ],
                    "source": [ "obj-45", 0 ]
                }
            },
            {
                "patchline": {
                    "destination": [ "obj-49", 0 ],
                    "source": [ "obj-47", 0 ]
                }
            },
            {
                "patchline": {
                    "destination": [ "obj-40", 0 ],
                    "midpoints": [ 269.0, 524.0, 347.0, 524.0, 347.0, 342.0, 208.5, 342.0 ],
                    "source": [ "obj-49", 0 ]
                }
            },
            {
                "patchline": {
                    "destination": [ "obj-40", 0 ],
                    "source": [ "obj-50", 0 ]
                }
            },
            {
                "patchline": {
                    "destination": [ "obj-50", 0 ],
                    "source": [ "obj-57", 1 ]
                }
            },
            {
                "patchline": {
                    "destination": [ "obj-59", 0 ],
                    "source": [ "obj-57", 0 ]
                }
            },
            {
                "patchline": {
                    "destination": [ "obj-40", 0 ],
                    "source": [ "obj-59", 0 ]
                }
            },
            {
                "patchline": {
                    "destination": [ "obj-57", 0 ],
                    "source": [ "obj-64", 0 ]
                }
            },
            {
                "patchline": {
                    "destination": [ "obj-44", 0 ],
                    "source": [ "obj-65", 0 ]
                }
            }
        ],
        "autosave": 0
    }
}